<?xml version="1.0" encoding="UTF-8" standalone="no"?>
<svg
   xmlns:dc="http://purl.org/dc/elements/1.1/"
   xmlns:cc="http://creativecommons.org/ns#"
   xmlns:rdf="http://www.w3.org/1999/02/22-rdf-syntax-ns#"
   xmlns:svg="http://www.w3.org/2000/svg"
   xmlns="http://www.w3.org/2000/svg"
   xmlns:sodipodi="http://sodipodi.sourceforge.net/DTD/sodipodi-0.dtd"
   xmlns:inkscape="http://www.inkscape.org/namespaces/inkscape"
   width="528pt"
   height="136pt"
   viewBox="0 0 528 136"
   version="1.1"
   id="svg2"
   inkscape:version="0.91 r13725"
   sodipodi:docname="logo.svg">
  <metadata
     id="metadata62">
    <rdf:RDF>
      <cc:Work
         rdf:about="">
        <dc:format>image/svg+xml</dc:format>
        <dc:type
           rdf:resource="http://purl.org/dc/dcmitype/StillImage" />
        <dc:title></dc:title>
      </cc:Work>
    </rdf:RDF>
  </metadata>
  <defs
     id="defs60" />
  <sodipodi:namedview
     pagecolor="#ffffff"
     bordercolor="#666666"
     borderopacity="1"
     objecttolerance="10"
     gridtolerance="10"
     guidetolerance="10"
     inkscape:pageopacity="0"
     inkscape:pageshadow="2"
     inkscape:window-width="3200"
     inkscape:window-height="1750"
     id="namedview58"
     showgrid="false"
     inkscape:zoom="1.4399265"
     inkscape:cx="314.8744"
     inkscape:cy="-134.099"
     inkscape:window-x="0"
     inkscape:window-y="50"
     inkscape:window-maximized="1"
     inkscape:current-layer="svg2" />
  <path
     d=" M 0.00 0.00 L 12.00 0.00 C 12.04 7.09 11.93 14.17 12.03 21.26 C 15.68 18.68 19.48 16.33 23.55 14.45 C 24.62 9.78 23.73 4.79 23.99 0.00 L 36.01 0.00 C 36.04 3.97 35.85 7.94 36.09 11.91 C 40.02 12.11 43.98 12.11 47.91 11.91 C 48.14 7.94 47.96 3.97 47.99 0.00 L 60.01 0.00 C 60.04 3.97 59.85 7.94 60.09 11.91 C 64.02 12.11 67.98 12.11 71.91 11.91 C 72.14 7.94 71.96 3.97 71.99 0.00 L 84.01 0.00 C 83.66 11.27 85.41 22.58 84.10 33.81 C 69.06 34.31 53.99 33.78 38.94 34.05 C 34.17 34.37 29.92 37.67 27.87 41.91 C 25.35 46.86 24.95 52.53 24.99 57.98 C 25.03 71.68 24.97 85.39 25.01 99.08 C 25.04 103.94 26.95 109.18 31.26 111.81 C 35.95 114.79 41.74 113.87 47.00 114.01 C 59.37 114.13 71.75 113.74 84.11 114.19 C 84.93 121.40 84.49 128.75 84.28 136.00 L 35.55 136.00 C 27.21 135.10 18.69 132.35 12.51 126.48 C 6.06 120.33 1.73 112.10 0.00 103.38 L 0.00 0.00 Z"
     id="path4"
     fill="#000000" />
  <path
     fill="#000000"
     d=" M 95.00 0.00 L 107.01 0.00 C 107.04 3.97 106.85 7.94 107.09 11.91 C 111.02 12.11 114.98 12.11 118.91 11.91 C 119.14 7.94 118.96 3.97 118.99 0.00 L 131.01 0.00 C 131.04 3.97 130.85 7.95 131.09 11.91 C 136.36 12.09 141.64 12.09 146.91 11.92 C 147.14 7.95 146.96 3.97 146.99 0.00 L 159.01 0.00 C 159.04 3.97 158.85 7.94 159.09 11.91 C 163.02 12.11 166.98 12.11 170.91 11.91 C 171.14 7.94 170.96 3.97 170.99 0.00 L 183.00 0.00 C 182.71 11.24 183.41 22.51 182.72 33.72 C 172.29 34.60 161.74 33.37 151.31 34.31 C 150.80 37.18 151.01 40.10 150.99 43.00 C 151.04 72.35 150.95 101.71 151.03 131.06 C 151.06 132.73 150.81 134.38 150.41 136.00 L 126.60 136.00 C 125.67 132.74 126.02 129.33 125.99 125.99 C 126.02 98.66 125.98 71.33 126.01 44.01 C 125.97 40.77 126.21 37.50 125.72 34.28 C 115.60 33.42 105.39 34.57 95.28 33.73 C 94.59 22.51 95.29 11.24 95.00 0.00 Z"
     id="path14" />
  <path
     d=" M 193.00 0.00 L 205.00 0.00 C 205.04 4.79 204.89 9.58 205.06 14.36 C 209.86 12.74 214.86 11.98 219.92 11.84 C 220.14 7.90 219.96 3.95 219.99 0.00 L 232.01 0.00 C 232.04 3.97 231.85 7.94 232.08 11.91 C 236.02 12.11 239.98 12.11 243.92 11.91 C 244.14 7.94 243.96 3.97 243.99 0.00 L 256.01 0.00 C 256.04 3.97 255.85 7.94 256.08 11.91 C 260.02 12.11 263.97 12.11 267.91 11.91 C 268.14 7.94 267.96 3.97 267.99 0.00 L 280.00 0.00 C 279.71 11.24 280.41 22.51 279.72 33.72 C 263.18 34.36 246.57 33.84 230.00 33.97 C 226.71 34.11 222.64 33.46 220.19 36.21 C 217.52 39.51 218.08 44.05 217.98 48.01 C 218.15 52.89 217.62 57.82 218.32 62.68 C 236.74 63.63 255.29 62.40 273.72 63.28 C 274.20 70.40 274.20 77.61 273.72 84.73 C 255.29 85.60 236.75 84.37 218.33 85.32 C 217.38 102.17 218.58 119.13 217.72 136.00 L 193.16 136.00 C 192.79 90.67 193.10 45.33 193.00 0.00 Z"
     id="path24"
     fill="#000000" />
  <path
     d="M 448.75 0 C 449.3625 4.575 448.67578 9.1625 448.73828 13.75 C 448.71328 29.1125 448.82539 44.475391 448.71289 59.837891 C 444.22539 58.750391 439.75039 57.3625 435.08789 57.5 C 420.45039 57.525 405.825 57.425781 391.1875 57.550781 C 379.4125 57.663281 367.74961 64.324609 362.53711 75.037109 C 356.82461 85.812109 359.2625 98.3375 358.75 110 C 359.2 124.6125 356.82578 140.26328 363.67578 153.80078 C 368.03828 162.82578 377.2625 168.525 387 170 L 435.57422 170 C 443.86172 169.25 453.01328 167.88828 458.98828 161.48828 C 466.32578 153.72578 467.8125 142.48789 468.375 132.27539 C 468.675 118.16289 468.475 104.03828 468.5 89.925781 C 468.625 81.763281 465.525 73.574219 459.75 67.761719 C 457.875 65.836719 455.62539 64.311719 453.90039 62.261719 C 453.52539 49.024219 453.83789 35.75 453.77539 22.5 C 453.60039 16.7875 454.08828 11.050781 453.42578 5.3632812 C 452.90078 3.5507813 453.69961 1.7625 454.03711 0 L 448.75 0 z M 413.10547 83.792969 C 418.18984 83.786719 423.27461 83.875 428.34961 84.125 C 434.28711 84.775 442.33789 87.836719 442.46289 94.886719 C 442.50039 107.02422 442.58828 119.16328 442.42578 131.30078 C 442.33828 135.87578 438.58711 139.28711 434.72461 141.09961 C 427.84961 144.61211 419.925 143.45039 412.5 143.65039 C 406.075 143.48789 399.33828 144.36172 393.23828 141.88672 C 388.46328 139.99922 384.63672 135.35078 384.82422 130.05078 C 384.72422 118.35078 384.7375 106.64922 384.8125 94.949219 C 384.55 88.086719 391.86328 84.287891 397.86328 84.025391 C 402.93828 83.900391 408.02109 83.799219 413.10547 83.792969 z "
     id="path34"
     transform="scale(0.8,0.8)" />
  <path
     fill="#000000"
     d=" M 440.00 0.00 L 452.01 0.00 C 452.03 3.97 451.85 7.94 452.08 11.91 C 456.02 12.11 459.97 12.11 463.91 11.91 C 464.14 7.94 463.96 3.97 463.99 0.00 L 476.01 0.00 C 476.03 3.97 475.85 7.95 476.08 11.91 C 481.35 12.09 486.64 12.09 491.91 11.91 C 492.14 7.95 491.96 3.97 491.99 0.00 L 504.01 0.00 C 504.03 3.97 503.85 7.94 504.08 11.91 C 508.02 12.11 511.97 12.11 515.91 11.91 C 516.14 7.94 515.96 3.97 515.99 0.00 L 528.00 0.00 L 528.00 12.38 C 528.00 12.44 528.00 12.56 528.00 12.63 L 528.00 33.38 C 517.56 35.03 506.82 33.17 496.32 34.31 C 496.10 35.51 495.98 36.73 495.98 37.95 C 496.02 66.97 495.99 95.98 496.00 125.00 C 495.95 128.67 496.36 132.41 495.42 136.00 L 471.59 136.00 C 471.19 134.38 470.94 132.73 470.97 131.06 C 471.05 100.36 470.95 69.66 471.02 38.96 C 471.00 37.40 470.97 35.83 470.72 34.28 C 460.60 33.42 450.39 34.57 440.27 33.73 C 439.59 22.51 440.29 11.24 440.00 0.00 Z"
     id="path38" />
  <path
     fill="#0313e7"
     d=" M 362.74 4.29 C 369.17 3.47 375.78 3.98 381.84 6.36 C 382.19 10.91 382.10 15.50 381.87 20.05 C 378.45 20.01 375.27 18.56 371.91 18.11 C 368.95 17.84 365.98 18.00 363.02 18.00 C 362.88 13.43 363.27 8.84 362.74 4.29 Z"
     id="path46" />
  <path
     fill="#0313e7"
     d=" M 528.00 12.63 C 528.00 12.56 528.00 12.44 528.00 12.38 L 528.00 12.63 Z"
     id="path48" />
  <path
     fill="#000000"
     d=" M 388.56 60.61 C 391.88 52.03 400.68 45.84 409.94 46.00 C 418.19 46.16 426.49 45.63 434.72 46.28 C 435.21 53.08 435.18 59.96 434.74 66.76 C 428.30 67.68 421.74 66.47 415.32 67.39 C 411.99 68.73 409.77 72.33 410.00 75.92 C 410.01 94.30 409.97 112.68 410.03 131.06 C 410.05 132.73 409.81 134.38 409.41 136.00 L 387.60 136.00 C 386.68 132.74 387.02 129.33 386.99 126.00 C 387.01 109.00 387.00 92.00 386.99 75.00 C 387.00 70.18 386.62 65.15 388.56 60.61 Z"
     id="path52" />
</svg>
