<?xml version="1.0" encoding="UTF-8" ?>
<!DOCTYPE svg PUBLIC "-//W3C//DTD SVG 1.1//EN" "http://www.w3.org/Graphics/SVG/1.1/DTD/svg11.dtd">
<svg width="528pt" height="136pt" viewBox="0 0 528 136" version="1.1" xmlns="http://www.w3.org/2000/svg">
<path fill="#000000" d=" M 0.00 0.00 L 12.00 0.00 C 12.04 7.09 11.93 14.17 12.03 21.26 C 15.68 18.68 19.48 16.33 23.55 14.45 C 24.62 9.78 23.73 4.79 23.99 0.00 L 36.01 0.00 C 36.04 3.97 35.85 7.94 36.09 11.91 C 40.02 12.11 43.98 12.11 47.91 11.91 C 48.14 7.94 47.96 3.97 47.99 0.00 L 60.01 0.00 C 60.04 3.97 59.85 7.94 60.09 11.91 C 64.02 12.11 67.98 12.11 71.91 11.91 C 72.14 7.94 71.96 3.97 71.99 0.00 L 84.01 0.00 C 83.66 11.27 85.41 22.58 84.10 33.81 C 69.06 34.31 53.99 33.78 38.94 34.05 C 34.17 34.37 29.92 37.67 27.87 41.91 C 25.35 46.86 24.95 52.53 24.99 57.98 C 25.03 71.68 24.97 85.39 25.01 99.08 C 25.04 103.94 26.95 109.18 31.26 111.81 C 35.95 114.79 41.74 113.87 47.00 114.01 C 59.37 114.13 71.75 113.74 84.11 114.19 C 84.93 121.40 84.49 128.75 84.28 136.00 L 35.55 136.00 C 27.21 135.10 18.69 132.35 12.51 126.48 C 6.06 120.33 1.73 112.10 0.00 103.38 L 0.00 0.00 Z" />
<path fill="#ffffff" d=" M 12.00 0.00 L 23.99 0.00 C 23.73 4.79 24.62 9.78 23.55 14.45 C 19.48 16.33 15.68 18.68 12.03 21.26 C 11.93 14.17 12.04 7.09 12.00 0.00 Z" />
<path fill="#ffffff" d=" M 36.01 0.00 L 47.99 0.00 C 47.96 3.97 48.14 7.94 47.91 11.91 C 43.98 12.11 40.02 12.11 36.09 11.91 C 35.85 7.94 36.04 3.97 36.01 0.00 Z" />
<path fill="#ffffff" d=" M 60.01 0.00 L 71.99 0.00 C 71.96 3.97 72.14 7.94 71.91 11.91 C 67.98 12.11 64.02 12.11 60.09 11.91 C 59.85 7.94 60.04 3.97 60.01 0.00 Z" />
<path fill="#ffffff" d=" M 84.01 0.00 L 95.00 0.00 C 95.29 11.24 94.59 22.51 95.28 33.73 C 105.39 34.57 115.60 33.42 125.72 34.28 C 126.21 37.50 125.97 40.77 126.01 44.01 C 125.98 71.33 126.02 98.66 125.99 125.99 C 126.02 129.33 125.67 132.74 126.60 136.00 L 84.28 136.00 C 84.49 128.75 84.93 121.40 84.11 114.19 C 71.75 113.74 59.37 114.13 47.00 114.01 C 41.74 113.87 35.95 114.79 31.26 111.81 C 26.95 109.18 25.04 103.94 25.01 99.08 C 24.97 85.39 25.03 71.68 24.99 57.98 C 24.95 52.53 25.35 46.86 27.87 41.91 C 29.92 37.67 34.17 34.37 38.94 34.05 C 53.99 33.78 69.06 34.31 84.10 33.81 C 85.41 22.58 83.66 11.27 84.01 0.00 Z" />
<path fill="#000000" d=" M 95.00 0.00 L 107.01 0.00 C 107.04 3.97 106.85 7.94 107.09 11.91 C 111.02 12.11 114.98 12.11 118.91 11.91 C 119.14 7.94 118.96 3.97 118.99 0.00 L 131.01 0.00 C 131.04 3.97 130.85 7.95 131.09 11.91 C 136.36 12.09 141.64 12.09 146.91 11.92 C 147.14 7.95 146.96 3.97 146.99 0.00 L 159.01 0.00 C 159.04 3.97 158.85 7.94 159.09 11.91 C 163.02 12.11 166.98 12.11 170.91 11.91 C 171.14 7.94 170.96 3.97 170.99 0.00 L 183.00 0.00 C 182.71 11.24 183.41 22.51 182.72 33.72 C 172.29 34.60 161.74 33.37 151.31 34.31 C 150.80 37.18 151.01 40.10 150.99 43.00 C 151.04 72.35 150.95 101.71 151.03 131.06 C 151.06 132.73 150.81 134.38 150.41 136.00 L 126.60 136.00 C 125.67 132.74 126.02 129.33 125.99 125.99 C 126.02 98.66 125.98 71.33 126.01 44.01 C 125.97 40.77 126.21 37.50 125.72 34.28 C 115.60 33.42 105.39 34.57 95.28 33.73 C 94.59 22.51 95.29 11.24 95.00 0.00 Z" />
<path fill="#ffffff" d=" M 107.01 0.00 L 118.99 0.00 C 118.96 3.97 119.14 7.94 118.91 11.91 C 114.98 12.11 111.02 12.11 107.09 11.91 C 106.85 7.94 107.04 3.97 107.01 0.00 Z" />
<path fill="#ffffff" d=" M 131.01 0.00 L 146.99 0.00 C 146.96 3.97 147.14 7.95 146.91 11.92 C 141.64 12.09 136.36 12.09 131.09 11.91 C 130.85 7.95 131.04 3.97 131.01 0.00 Z" />
<path fill="#ffffff" d=" M 159.01 0.00 L 170.99 0.00 C 170.96 3.97 171.14 7.94 170.91 11.91 C 166.98 12.11 163.02 12.11 159.09 11.91 C 158.85 7.94 159.04 3.97 159.01 0.00 Z" />
<path fill="#ffffff" d=" M 183.00 0.00 L 193.00 0.00 C 193.10 45.33 192.79 90.67 193.16 136.00 L 150.41 136.00 C 150.81 134.38 151.06 132.73 151.03 131.06 C 150.95 101.71 151.04 72.35 150.99 43.00 C 151.01 40.10 150.80 37.18 151.31 34.31 C 161.74 33.37 172.29 34.60 182.72 33.72 C 183.41 22.51 182.71 11.24 183.00 0.00 Z" />
<path fill="#000000" d=" M 193.00 0.00 L 205.00 0.00 C 205.04 4.79 204.89 9.58 205.06 14.36 C 209.86 12.74 214.86 11.98 219.92 11.84 C 220.14 7.90 219.96 3.95 219.99 0.00 L 232.01 0.00 C 232.04 3.97 231.85 7.94 232.08 11.91 C 236.02 12.11 239.98 12.11 243.92 11.91 C 244.14 7.94 243.96 3.97 243.99 0.00 L 256.01 0.00 C 256.04 3.97 255.85 7.94 256.08 11.91 C 260.02 12.11 263.97 12.11 267.91 11.91 C 268.14 7.94 267.96 3.97 267.99 0.00 L 280.00 0.00 C 279.71 11.24 280.41 22.51 279.72 33.72 C 263.18 34.36 246.57 33.84 230.00 33.97 C 226.71 34.11 222.64 33.46 220.19 36.21 C 217.52 39.51 218.08 44.05 217.98 48.01 C 218.15 52.89 217.62 57.82 218.32 62.68 C 236.74 63.63 255.29 62.40 273.72 63.28 C 274.20 70.40 274.20 77.61 273.72 84.73 C 255.29 85.60 236.75 84.37 218.33 85.32 C 217.38 102.17 218.58 119.13 217.72 136.00 L 193.16 136.00 C 192.79 90.67 193.10 45.33 193.00 0.00 Z" />
<path fill="#ffffff" d=" M 205.00 0.00 L 219.99 0.00 C 219.96 3.95 220.14 7.90 219.92 11.84 C 214.86 11.98 209.86 12.74 205.06 14.36 C 204.89 9.58 205.04 4.79 205.00 0.00 Z" />
<path fill="#ffffff" d=" M 232.01 0.00 L 243.99 0.00 C 243.96 3.97 244.14 7.94 243.92 11.91 C 239.98 12.11 236.02 12.11 232.08 11.91 C 231.85 7.94 232.04 3.97 232.01 0.00 Z" />
<path fill="#ffffff" d=" M 256.01 0.00 L 267.99 0.00 C 267.96 3.97 268.14 7.94 267.91 11.91 C 263.97 12.11 260.02 12.11 256.08 11.91 C 255.85 7.94 256.04 3.97 256.01 0.00 Z" />
<path fill="#ffffff" d=" M 280.00 0.00 L 359.00 0.00 C 359.49 3.66 358.94 7.33 358.99 11.00 C 358.97 23.29 359.06 35.58 358.97 47.87 C 355.38 47.00 351.80 45.89 348.07 46.00 C 336.36 46.02 324.66 45.94 312.95 46.04 C 303.53 46.13 294.20 51.46 290.03 60.03 C 285.46 68.65 287.41 78.67 287.00 88.00 C 287.36 99.69 285.46 112.21 290.94 123.04 C 294.43 130.26 301.81 134.82 309.60 136.00 L 217.72 136.00 C 218.58 119.13 217.38 102.17 218.33 85.32 C 236.75 84.37 255.29 85.60 273.72 84.73 C 274.20 77.61 274.20 70.40 273.72 63.28 C 255.29 62.40 236.74 63.63 218.32 62.68 C 217.62 57.82 218.15 52.89 217.98 48.01 C 218.08 44.05 217.52 39.51 220.19 36.21 C 222.64 33.46 226.71 34.11 230.00 33.97 C 246.57 33.84 263.18 34.36 279.72 33.72 C 280.41 22.51 279.71 11.24 280.00 0.00 Z" />
<path fill="#000000" d=" M 359.00 0.00 L 363.23 0.00 C 362.96 1.41 362.32 2.84 362.74 4.29 C 363.27 8.84 362.88 13.43 363.02 18.00 C 363.07 28.60 362.82 39.22 363.12 49.81 C 364.50 51.45 366.30 52.67 367.80 54.21 C 372.42 58.86 374.90 65.41 374.80 71.94 C 374.78 83.23 374.94 94.53 374.70 105.82 C 374.25 113.99 373.06 122.98 367.19 129.19 C 362.41 134.31 355.09 135.40 348.46 136.00 L 309.60 136.00 C 301.81 134.82 294.43 130.26 290.94 123.04 C 285.46 112.21 287.36 99.69 287.00 88.00 C 287.41 78.67 285.46 68.65 290.03 60.03 C 294.20 51.46 303.53 46.13 312.95 46.04 C 324.66 45.94 336.36 46.02 348.07 46.00 C 351.80 45.89 355.38 47.00 358.97 47.87 C 359.06 35.58 358.97 23.29 358.99 11.00 C 358.94 7.33 359.49 3.66 359.00 0.00 Z" />
<path fill="#ffffff" d=" M 363.23 0.00 L 440.00 0.00 C 440.29 11.24 439.59 22.51 440.27 33.73 C 450.39 34.57 460.60 33.42 470.72 34.28 C 470.97 35.83 471.00 37.40 471.02 38.96 C 470.95 69.66 471.05 100.36 470.97 131.06 C 470.94 132.73 471.19 134.38 471.59 136.00 L 409.41 136.00 C 409.81 134.38 410.05 132.73 410.03 131.06 C 409.97 112.68 410.01 94.30 410.00 75.92 C 409.77 72.33 411.99 68.73 415.32 67.39 C 421.74 66.47 428.30 67.68 434.74 66.76 C 435.18 59.96 435.21 53.08 434.72 46.28 C 426.49 45.63 418.19 46.16 409.94 46.00 C 400.68 45.84 391.88 52.03 388.56 60.61 C 386.62 65.15 387.00 70.18 386.99 75.00 C 387.00 92.00 387.01 109.00 386.99 126.00 C 387.02 129.33 386.68 132.74 387.60 136.00 L 348.46 136.00 C 355.09 135.40 362.41 134.31 367.19 129.19 C 373.06 122.98 374.25 113.99 374.70 105.82 C 374.94 94.53 374.78 83.23 374.80 71.94 C 374.90 65.41 372.42 58.86 367.80 54.21 C 366.30 52.67 364.50 51.45 363.12 49.81 C 362.82 39.22 363.07 28.60 363.02 18.00 C 365.98 18.00 368.95 17.84 371.91 18.11 C 375.27 18.56 378.45 20.01 381.87 20.05 C 382.10 15.50 382.19 10.91 381.84 6.36 C 375.78 3.98 369.17 3.47 362.74 4.29 C 362.32 2.84 362.96 1.41 363.23 0.00 Z" />
<path fill="#000000" d=" M 440.00 0.00 L 452.01 0.00 C 452.03 3.97 451.85 7.94 452.08 11.91 C 456.02 12.11 459.97 12.11 463.91 11.91 C 464.14 7.94 463.96 3.97 463.99 0.00 L 476.01 0.00 C 476.03 3.97 475.85 7.95 476.08 11.91 C 481.35 12.09 486.64 12.09 491.91 11.91 C 492.14 7.95 491.96 3.97 491.99 0.00 L 504.01 0.00 C 504.03 3.97 503.85 7.94 504.08 11.91 C 508.02 12.11 511.97 12.11 515.91 11.91 C 516.14 7.94 515.96 3.97 515.99 0.00 L 528.00 0.00 L 528.00 12.38 C 528.00 12.44 528.00 12.56 528.00 12.63 L 528.00 33.38 C 517.56 35.03 506.82 33.17 496.32 34.31 C 496.10 35.51 495.98 36.73 495.98 37.95 C 496.02 66.97 495.99 95.98 496.00 125.00 C 495.95 128.67 496.36 132.41 495.42 136.00 L 471.59 136.00 C 471.19 134.38 470.94 132.73 470.97 131.06 C 471.05 100.36 470.95 69.66 471.02 38.96 C 471.00 37.40 470.97 35.83 470.72 34.28 C 460.60 33.42 450.39 34.57 440.27 33.73 C 439.59 22.51 440.29 11.24 440.00 0.00 Z" />
<path fill="#ffffff" d=" M 452.01 0.00 L 463.99 0.00 C 463.96 3.97 464.14 7.94 463.91 11.91 C 459.97 12.11 456.02 12.11 452.08 11.91 C 451.85 7.94 452.03 3.97 452.01 0.00 Z" />
<path fill="#ffffff" d=" M 476.01 0.00 L 491.99 0.00 C 491.96 3.97 492.14 7.95 491.91 11.91 C 486.64 12.09 481.35 12.09 476.08 11.91 C 475.85 7.95 476.03 3.97 476.01 0.00 Z" />
<path fill="#ffffff" d=" M 504.01 0.00 L 515.99 0.00 C 515.96 3.97 516.14 7.94 515.91 11.91 C 511.97 12.11 508.02 12.11 504.08 11.91 C 503.85 7.94 504.03 3.97 504.01 0.00 Z" />
<path fill="#0313e7" d=" M 362.74 4.29 C 369.17 3.47 375.78 3.98 381.84 6.36 C 382.19 10.91 382.10 15.50 381.87 20.05 C 378.45 20.01 375.27 18.56 371.91 18.11 C 368.95 17.84 365.98 18.00 363.02 18.00 C 362.88 13.43 363.27 8.84 362.74 4.29 Z" />
<path fill="#0313e7" d=" M 528.00 12.63 C 528.00 12.56 528.00 12.44 528.00 12.38 L 528.00 12.63 Z" />
<path fill="#ffffff" d=" M 496.32 34.31 C 506.82 33.17 517.56 35.03 528.00 33.38 L 528.00 136.00 L 495.42 136.00 C 496.36 132.41 495.95 128.67 496.00 125.00 C 495.99 95.98 496.02 66.97 495.98 37.95 C 495.98 36.73 496.10 35.51 496.32 34.31 Z" />
<path fill="#000000" d=" M 388.56 60.61 C 391.88 52.03 400.68 45.84 409.94 46.00 C 418.19 46.16 426.49 45.63 434.72 46.28 C 435.21 53.08 435.18 59.96 434.74 66.76 C 428.30 67.68 421.74 66.47 415.32 67.39 C 411.99 68.73 409.77 72.33 410.00 75.92 C 410.01 94.30 409.97 112.68 410.03 131.06 C 410.05 132.73 409.81 134.38 409.41 136.00 L 387.60 136.00 C 386.68 132.74 387.02 129.33 386.99 126.00 C 387.01 109.00 387.00 92.00 386.99 75.00 C 387.00 70.18 386.62 65.15 388.56 60.61 Z" />
<path fill="#ffffff" d=" M 318.29 67.22 C 326.41 67.02 334.56 66.90 342.68 67.30 C 347.43 67.82 353.87 70.27 353.97 75.91 C 354.00 85.62 354.07 95.33 353.94 105.04 C 353.87 108.70 350.87 111.43 347.78 112.88 C 342.28 115.69 335.94 114.76 330.00 114.92 C 324.86 114.79 319.47 115.49 314.59 113.51 C 310.77 112.00 307.71 108.28 307.86 104.04 C 307.78 94.68 307.79 85.32 307.85 75.96 C 307.64 70.47 313.49 67.43 318.29 67.22 Z" />
<path fill="#ffffff" d=" M 0.00 103.38 C 1.73 112.10 6.06 120.33 12.51 126.48 C 18.69 132.35 27.21 135.10 35.55 136.00 L 0.00 136.00 L 0.00 103.38 Z" />
</svg>
